<?xml version="1.0" encoding="utf-8"?>
<!-- Generator: Adobe Illustrator 16.0.0, SVG Export Plug-In . SVG Version: 6.00 Build 0)  -->
<!DOCTYPE svg PUBLIC "-//W3C//DTD SVG 1.1//EN" "http://www.w3.org/Graphics/SVG/1.1/DTD/svg11.dtd">
<svg version="1.1" id="Icon_awesome-mobile" xmlns="http://www.w3.org/2000/svg" xmlns:xlink="http://www.w3.org/1999/xlink"
	 x="0px" y="0px" width="13.146px" height="21.035px" viewBox="0 0 13.146 21.035" enable-background="new 0 0 13.146 21.035"
	 xml:space="preserve">
<path id="Icon_awesome-mobile-2" fill="#BEBEBE" d="M11.174,0H1.974C0.885-0.001,0.001,0.881,0,1.97c0,0,0,0.001,0,0.002v17.09
	c0,1.089,0.883,1.973,1.973,1.973l0,0h9.199c1.09,0,1.973-0.884,1.973-1.973l0,0V1.972C13.144,0.884,12.262,0.001,11.174,0z
	 M6.574,19.72c-0.727,0-1.315-0.589-1.315-1.315c0-0.726,0.589-1.315,1.315-1.315s1.315,0.59,1.315,1.315
	c0.001,0.726-0.586,1.313-1.312,1.315C6.576,19.72,6.575,19.72,6.574,19.72L6.574,19.72z"/>
</svg>
