<?xml version="1.0" encoding="utf-8"?>
<!-- Generator: Adobe Illustrator 16.0.0, SVG Export Plug-In . SVG Version: 6.00 Build 0)  -->
<!DOCTYPE svg PUBLIC "-//W3C//DTD SVG 1.1//EN" "http://www.w3.org/Graphics/SVG/1.1/DTD/svg11.dtd">
<svg version="1.1" id="Layer_1" xmlns="http://www.w3.org/2000/svg" xmlns:xlink="http://www.w3.org/1999/xlink" x="0px" y="0px"
	 width="72.061px" height="72.061px" viewBox="0 0 72.061 72.061" enable-background="new 0 0 72.061 72.061" xml:space="preserve">
<g id="Group_123252" transform="translate(2501.529 3951.581)">
	<g id="Group_123253" transform="translate(-2491 -3941.405)">
		
			<ellipse id="Ellipse_981" opacity="0.124" fill="#FFFFFF" enable-background="new    " cx="25.502" cy="25.855" rx="21.323" ry="21.323"/>
		
			<linearGradient id="Ellipse_977_1_" gradientUnits="userSpaceOnUse" x1="-386.0679" y1="317.0215" x2="-386.0679" y2="316.0215" gradientTransform="matrix(42.646 0 0 -42.646 16489.7656 13524.1924)">
			<stop  offset="0" style="stop-color:#BDBDBC"/>
			<stop  offset="1" style="stop-color:#F6F8FD"/>
		</linearGradient>
		
			<ellipse id="Ellipse_977" opacity="0.03" fill="url(#Ellipse_977_1_)" enable-background="new    " cx="25.502" cy="25.855" rx="21.323" ry="21.323"/>
		
			<ellipse id="Ellipse_978" opacity="0.944" fill="#DEDEDE" enable-background="new    " cx="25.502" cy="25.855" rx="20.588" ry="20.588"/>
		
			<linearGradient id="Ellipse_979_1_" gradientUnits="userSpaceOnUse" x1="-401.4351" y1="332.2119" x2="-401.4351" y2="331.2119" gradientTransform="matrix(-38.611 10.3522 10.3522 38.611 -18908.252 -8626.1709)">
			<stop  offset="0" style="stop-color:#BDBDBC"/>
			<stop  offset="1" style="stop-color:#F6F8FD"/>
		</linearGradient>
		
			<circle id="Ellipse_979" opacity="0.265" fill="url(#Ellipse_979_1_)" enable-background="new    " cx="25.527" cy="25.734" r="19.988"/>
		
			<linearGradient id="Ellipse_980_1_" gradientUnits="userSpaceOnUse" x1="-389.8037" y1="312.3379" x2="-389.8037" y2="311.3379" gradientTransform="matrix(32.521 -18.776 -18.776 -32.521 18557.5469 2847.9814)">
			<stop  offset="0" style="stop-color:#F2F7F8"/>
			<stop  offset="1" style="stop-color:#D1D1D1"/>
		</linearGradient>
		
			<circle id="Ellipse_980" opacity="0.995" fill="url(#Ellipse_980_1_)" enable-background="new    " cx="25.673" cy="25.648" r="18.776"/>
		<g id="Group_123252-2" transform="translate(17.211 18.825)">
			<path id="Path_164589" fill="#606060" d="M15.329,2.563H1.278c-0.707,0-1.28-0.573-1.28-1.28l0,0c0-0.707,0.573-1.279,1.28-1.279
				l0,0h14.051c0.707,0,1.28,0.572,1.28,1.279l0,0C16.609,1.989,16.036,2.563,15.329,2.563L15.329,2.563z"/>
			<path id="Path_164590" fill="#606060" d="M15.329,8.096H1.278c-0.707,0-1.28-0.573-1.28-1.28l0,0c0-0.707,0.573-1.28,1.28-1.28
				l0,0h14.051c0.707,0,1.28,0.573,1.28,1.28l0,0C16.609,7.523,16.036,8.096,15.329,8.096L15.329,8.096z"/>
			<path id="Path_164591" fill="#606060" d="M15.329,13.629H1.278c-0.707,0-1.28-0.573-1.28-1.28l0,0c0-0.707,0.573-1.28,1.28-1.28
				l0,0h14.051c0.707,0,1.28,0.573,1.28,1.28l0,0C16.609,13.056,16.036,13.629,15.329,13.629L15.329,13.629z"/>
		</g>
	</g>
</g>
</svg>
