<?xml version="1.0" encoding="utf-8"?>
<!-- Generator: Adobe Illustrator 16.0.0, SVG Export Plug-In . SVG Version: 6.00 Build 0)  -->
<!DOCTYPE svg PUBLIC "-//W3C//DTD SVG 1.1//EN" "http://www.w3.org/Graphics/SVG/1.1/DTD/svg11.dtd">
<svg version="1.1" id="Layer_1" xmlns="http://www.w3.org/2000/svg" xmlns:xlink="http://www.w3.org/1999/xlink" x="0px" y="0px"
	 width="841.889px" height="595.281px" viewBox="0 0 841.889 595.281" enable-background="new 0 0 841.889 595.281"
	 xml:space="preserve">
<path fill="#FFFDFD" d="M596.04,175.096c14.533-14.533,14.533-38.136,0-52.669s-38.135-14.533-52.668,0L420.945,244.971
	L298.401,122.544c-14.533-14.533-38.135-14.533-52.668,0s-14.533,38.136,0,52.669L368.277,297.64L245.849,420.184
	c-14.533,14.533-14.533,38.135,0,52.668s38.135,14.533,52.668,0l122.428-122.544l122.544,122.428
	c14.533,14.533,38.135,14.533,52.668,0s14.533-38.135,0-52.668L473.613,297.64L596.04,175.096z"/>
</svg>
